<svg xmlns="http://www.w3.org/2000/svg" width="256" height="256" viewBox="0 0 100 100">
    <path fill="#cb9eef"
        d="M26.70 68.07L26.70 68.07Q36.58 68.07 36.58 61.31L36.58 61.31Q36.58 59.23 35.70 57.77Q34.82 56.31 33.33 55.23Q31.83 54.16 29.92 53.38Q28.00 52.60 25.85 51.82L25.85 51.82Q23.38 50.98 21.17 49.90Q18.96 48.83 17.34 47.37Q15.71 45.91 14.77 43.89Q13.83 41.88 13.83 39.02L13.83 39.02Q13.83 33.10 17.86 29.79Q21.89 26.47 28.97 26.47L28.97 26.47Q33.07 26.47 36.42 27.35Q39.76 28.23 41.32 29.27L41.32 29.27L39.31 34.40Q37.94 33.56 35.25 32.74Q32.55 31.93 28.97 31.93L28.97 31.93Q27.15 31.93 25.59 32.32Q24.03 32.71 22.86 33.49Q21.69 34.27 21.01 35.47Q20.33 36.68 20.33 38.30L20.33 38.30Q20.33 40.12 21.04 41.36Q21.76 42.59 23.06 43.53Q24.36 44.48 26.08 45.26Q27.80 46.04 29.88 46.82L29.88 46.82Q32.81 47.99 35.25 49.16Q37.68 50.33 39.47 51.95Q41.26 53.58 42.23 55.82Q43.21 58.06 43.21 61.25L43.21 61.25Q43.21 67.16 38.89 70.35Q34.56 73.53 26.70 73.53L26.70 73.53Q24.03 73.53 21.79 73.17Q19.55 72.82 17.79 72.33Q16.04 71.84 14.77 71.29Q13.50 70.74 12.79 70.35L12.79 70.35L14.67 65.15Q16.17 65.99 19.22 67.03Q22.28 68.07 26.70 68.07ZM80.45 27.51L87.21 27.51Q84.74 34.66 82.50 40.74Q80.26 46.82 78.11 52.28Q75.97 57.74 73.85 62.71Q71.74 67.68 69.53 72.56L69.53 72.56L63.62 72.56Q61.41 67.68 59.29 62.71Q57.18 57.74 55.00 52.28Q52.83 46.82 50.55 40.74Q48.28 34.66 45.87 27.51L45.87 27.51L52.83 27.51Q56.34 37.78 59.72 47.27Q63.10 56.76 66.67 65.08L66.67 65.08Q70.25 56.83 73.63 47.30Q77.01 37.78 80.45 27.51L80.45 27.51Z"></path>
</svg>